<?xml version="1.0" encoding="utf-8"?>
<!-- Generator: Adobe Illustrator 26.0.0, SVG Export Plug-In . SVG Version: 6.00 Build 0)  -->
<svg version="1.1" id="Layer_1" xmlns="http://www.w3.org/2000/svg" xmlns:xlink="http://www.w3.org/1999/xlink" x="0px" y="0px"
	 viewBox="0 0 792 612" style="enable-background:new 0 0 792 612;" xml:space="preserve">
<style type="text/css">
	.st0{fill:#FFFFFF;}
</style>
<g>
	<g>
		<path class="st0" d="M195.06-236.38c318.47,0,636.94,0.01,955.41-0.1c3.76,0,4.59,0.83,4.59,4.59
			c-0.1,356.94-0.1,713.88,0,1070.82c0,3.76-0.83,4.59-4.59,4.59c-636.94-0.1-1273.88-0.1-1910.81,0c-3.76,0-4.59-0.82-4.59-4.59
			c0.1-356.94,0.1-713.88,0-1070.82c0-3.76,0.83-4.59,4.59-4.59C-441.88-236.37-123.41-236.38,195.06-236.38z M320.67,294.08
			c0-3.85,0.06-9.25-0.01-14.64c-0.14-10.22,0.66-20.27,4.89-29.77c0.37-0.83,0.26-1.89,0.29-2.84c0-0.04-0.96-0.31-1.23-0.13
			c-3.12,2.15-7.26,3.73-9.03,6.71c-2.55,4.29-3.39,9.6-4.92,14.5c-0.47,1.5-0.79,3.05-1.17,4.58c-0.6-1.59-1.62-3.16-1.74-4.79
			c-1.24-16.42-2.31-32.84-3.47-49.27c-0.95-13.42-2.09-26.82-2.88-40.24c-0.66-11.18-4.37-22.17-2.01-33.53
			c0.16-0.79-0.04-1.66-0.08-2.49c-0.36-6.94-0.93-13.87-1.03-20.82c-0.17-11.58,0.23-23.18-0.19-34.75
			c-0.13-3.59-1.75-7.34-3.56-10.52c-0.65-1.15-4.35-1.79-5.77-1.02c-2.93,1.59-5.59,4-7.8,6.56c-5.78,6.68-7.05,14.18-4.19,22.74
			c3.71,11.12,7.16,22.36,10.02,33.72c1.45,5.77,1.41,11.76-3.01,17.01c-2.05,2.44-3.13,5.82-4.19,8.94
			c-2.69,7.96-5.33,15.95-7.62,24.03c-3.79,13.36-7.51,26.75-10.8,40.25c-1.48,6.09-1.78,12.46-2.72,18.68
			c-1,6.54-2.45,13.03-3.13,19.6c-0.96,9.23-1.45,18.51-2.04,27.78c-0.22,3.37-1.64,5.29-4.98,6.53c-7.64,2.85-15.34,2.83-23.08,1.2
			c-9.7-2.04-19.3-4.54-28.99-6.6c-6.38-1.36-12.77-2.41-15.15-9.84c-0.19-0.58-0.74-1.13-1.25-1.52c-4.89-3.68-8.35-8-8.79-14.55
			c-0.93-13.89-2.29-27.74-3.38-41.62c-0.13-1.61-0.1-3.56,0.68-4.86c5.34-9.02,8.97-18.95,17.93-25.85
			c10.65-8.21,18.18-19.33,22.11-32.35c1.99-6.57,4.38-13.76-2.83-19.13c-0.97-0.72-3.22-1.31-3.74-0.8
			c-2.54,2.51-5.35,5.11-6.82,8.25c-1.95,4.15-2.46,8.96-4.17,13.25c-0.73,1.82-2.78,4.17-4.48,4.39
			c-14.4,1.85-22.11-1.19-19.06-18.09c0.26-1.47,0.84-2.88,1.08-4.35c0.44-2.76,1.26-5.6,1-8.31c-0.76-7.94-1.44-15.96-3.26-23.68
			c-0.82-3.46-3.65-7.78-6.69-9.06c-3.89-1.65-6.25,2.46-7.47,6.18c-0.05,0.16-0.13,0.32-0.24,0.43c-0.69,0.67-1.4,1.32-2.11,1.97
			c-0.6-0.71-1.35-1.34-1.76-2.15c-1.29-2.49-2.22-5.19-3.73-7.52c-1.02-1.58-2.78-2.67-4.21-3.98c-0.44,1.52-0.8,3.07-1.36,4.54
			c-0.53,1.39-0.96,3.03-1.97,4c-4.24,4.08-2.5,8.35-0.93,12.83c2.02,5.79,3.77,11.67,5.52,17.54c0.22,0.74-0.3,1.7-0.47,2.56
			c-0.44-0.64-0.99-1.23-1.3-1.92c-2.62-5.88-4.97-11.89-7.9-17.62c-1.35-2.65-4.97-7.01-5.55-6.71c-4.28,2.2-2.45,6.47-2.18,10.14
			c0.02,0.32,0.25,0.61,0.36,0.93c2.22,6.2,5.02,12.27,6.53,18.64c2.67,11.26,4.46,22.73,6.8,34.07c1.54,7.44,3.46,14.79,5.1,22.21
			c1.06,4.8,2.41,9.61,2.78,14.48c0.5,6.62,0.33,13.31,0.2,19.97c-0.17,8.81-0.53,17.62-0.88,26.42c-0.31,7.78-1.82,15.7-0.82,23.3
			c1.19,9.12,4.44,17.66,11.46,24.77c9.59,9.7,21.89,14.13,33.73,19.44c8.44,3.79,17.85,5.48,26.1,9.58
			c13.15,6.54,25.71,14.29,38.5,21.55c3.97,2.26,5.17,5.59,5.51,10.26c0.78,10.55,1.67,21.26,4.22,31.47
			c3.76,15.07,6.94,30,6.06,45.67c-0.21,3.76,0.82,7.89,2.34,11.39c5.99,13.9,9.77,28.27,9.02,43.41c-0.2,4.06-2.28,9.21-5.28,11.69
			c-5.67,4.67-12.64,7.74-19.05,11.52c-1.82,1.07-3.56,2.27-5.34,3.4c1.69,0.12,3.37,0.23,5.05,0.38c0.49,0.05,0.97,0.32,1.46,0.34
			c7.96,0.26,15.84,0.81,23.55-2.56c3.36-1.47,7.69-1.81,11.29-1.14c1.97,0.36,5.19,4.68,4.68,5.86c-1.96,4.57-5.19,8.6-7.94,12.83
			c-0.44,0.68-0.84,1.4-1.25,2.1c0.79-0.08,1.68,0.05,2.37-0.26c8.56-3.86,17.12-7.73,25.61-11.75c0.84-0.4,1.71-1.79,1.73-2.72
			c0.04-3.77,0.31-7.68-0.56-11.29c-1.03-4.31-3.61-8.24-4.67-12.54c-2.32-9.48-4.05-19.11-6.14-28.65
			c-1.24-5.67-2.99-11.23-4.03-16.93c-1.13-6.23-0.25-6.74,5.94-6.74c4.24,0,8.73-0.02,12.66-1.36c8.7-2.95,10.35-1.78,10.54,7.56
			c0.23,11.26,1.38,22.51,1.6,33.77c0.12,6.2,0.68,13.13-1.75,18.46c-2.7,5.94-4.87,11.37-4.43,17.92
			c0.57,8.38,6.78,14.5,15.15,14.57c6.15,0.05,12.62-0.94,18.36,0.64c9.83,2.71,19.56,6.37,28.69,10.91
			c10.31,5.13,20.19,11.26,29.76,17.7c11.64,7.82,24.26,9.27,37.61,7.52c1.77-0.23,4.93-2.01,4.85-2.31
			c-1.07-3.63,1.27-8.31-4.09-10.74c-5.19-2.35-9.44-5.95-9.29-12.85c0.05-2.32-2.14-4.66-3.22-7.03c-1.86-4.1-3.5-8.3-5.52-12.31
			c-1.07-2.12-2.31-4.81-4.21-5.73c-6.54-3.17-13.23-6.24-20.18-8.3c-11.83-3.5-24-4.87-36.44-4.4c-3.23,0.12-7.22-1.54-9.73-3.7
			c-13.33-11.46-16.7-26.5-14.8-43.37c0.95-8.5,1.91-17.13,1.48-25.62c-0.33-6.36-2.85-12.61-4.47-18.89
			c-0.27-1.03-0.95-1.94-1.44-2.91c-0.64,0.74-1.43,1.41-1.91,2.25c-4.64,8.18-11.2,14.45-19.34,19c-2.28,1.28-5.79,2.97-7.42,2.08
			c-1.85-1.01-2.92-4.67-3.11-7.26c-0.78-10.26-1.56-20.57-1.36-30.84c0.09-4.5,1.16-10.72,4.19-13.08
			c7.51-5.85,16.19-10.36,24.81-14.58c8.83-4.32,14.6-10.51,16.57-20.24c0.41-2.04,1.57-4.03,2.77-5.77
			c0.52-0.75,2.19-1.37,3.05-1.11c12.35,3.71,24.51,7.74,35.5,14.92c10.85,7.08,22.76,11.69,36.14,9.76
			c2.62-0.38,5.83-1.35,7.43-3.21c5.92-6.89,11.75-13.94,16.72-21.52c6.73-10.26,12.41-21.2,18.95-31.6
			c9.48-15.07,12.81-33.8,27.32-45.87c0.36-0.3,0.88-1.02,0.77-1.2c-0.54-0.88-1.15-1.83-1.98-2.37c-0.54-0.35-1.51-0.05-2.29-0.04
			c0.68-0.65,1.29-1.39,2.05-1.94c4.54-3.32,7.65-7.34,7.04-13.39c-0.08-0.83,0.43-1.71,0.66-2.57c0.54,0.77,1,1.61,1.63,2.29
			c0.73,0.78,2.25,2.1,2.32,2.04c3.58-3.43,7.46-6.66,10.41-10.58c5.68-7.55,10.67-15.61,16.26-23.23
			c4.14-5.64,4.42-11.47,2.71-17.96c-1.04-3.93-1.37-8.07-1.72-12.14c-0.35-4.07,0.49-8.44-0.71-12.2
			c-1.13-3.54-3.56-7.74-6.63-9.33c-4.43-2.3-10.45-2.92-13.51,2.76c-2.99,5.55-6.56,11.57-6.96,17.58
			c-0.88,13.15-5.32,23.88-15.19,32.62c-5.75,5.09-12.1,4.33-18.31,2.35c-5.37-1.72-4.53-7.1-4.84-11.51
			c-0.1-1.49-0.19-2.99-0.19-4.49c0.03-6.42-3-11.52-7.24-15.91c-0.9-0.93-3.39-1.36-4.57-0.8c-3.97,1.9-6.94,4.96-6.05,9.82
			c0.93,5.14,2.33,10.2,3.56,15.28c1.86,7.72,2.98,15.73,5.8,23.09c4.27,11.15,3.62,21.87-0.82,32.44
			c-3.05,7.28-6.95,14.22-10.69,21.18c-4.61,8.58-9.26,17.15-14.3,25.48c-2.19,3.62-4.86,7.34-8.22,9.77
			c-8.57,6.21-18.43,6.4-27.34,1.55c-12.35-6.72-23.96-14.81-35.97-22.17c-2.61-1.6-5.59-2.61-8.4-3.89
			c-0.32,2.78-0.89,5.56-0.92,8.35c-0.07,5.52,0.73,11.31-6.99,12.62c-0.79,0.13-1.37,1.37-2.08,2.07
			c-4.01,3.92-8.78,6.2-14.39,5.39c-1.63-0.23-4.42-3.18-4.24-3.49c2.39-4.16-1.19-4.9-3.32-6.6c-0.71-0.56-0.93-1.73-1.38-2.62
			c4.56,1.56,3.82-3.29,5.83-4.75c7.32-5.32,7.84-13.07,7.87-21.01c0.02-7.21-0.65-14.33-4.93-20.5c-4.16-5.99-9.79-6.91-14.54-1.49
			C324.47,285.47,322.62,290.58,320.67,294.08z M211.98,597.49c0.01-0.08,0.02-0.17,0.02-0.25c2.16,0,4.33,0.05,6.49-0.02
			c0.92-0.03,1.82-0.34,2.74-0.52c-0.43-0.66-0.84-1.33-1.3-1.97c-3.67-5.07-3.64-10.86-0.75-16.39c1.25-2.38,1.77-5.53,1.51-8.23
			c-0.52-5.35-1.65-10.39,3.02-14.84c1.56-1.49,1.88-4.53,2.23-6.95c0.53-3.62-0.86-5.08-4.47-3.02
			c-10.68,6.09-21.59,12.03-29.31,21.9c-5.6,7.17-9.82,15.17-5.53,24.67c0.69,1.53,2.66,3.24,4.23,3.46
			C197.87,596.33,204.94,596.82,211.98,597.49z M219.32,587.77c1.21,1.82,2.35,5.31,4.63,6.42c2.03,0.98,5.46-0.36,8.02-1.34
			c1.24-0.47,1.88-2.48,2.8-3.79c-1.13,0.25-2.26,0.56-3.41,0.71c-0.39,0.05-0.99-0.21-1.22-0.52c-1.8-2.45-3.54-4.94-5.28-7.43
			c-0.57-0.82-1.1-1.67-1.65-2.5c-0.76,0.79-1.8,1.46-2.21,2.4C220.34,583.21,220.09,584.89,219.32,587.77z"/>
		<path d="M320.67,294.08c1.95-3.5,3.8-8.6,7.13-12.41c4.75-5.42,10.38-4.5,14.54,1.49c4.28,6.17,4.96,13.29,4.93,20.5
			c-0.03,7.94-0.55,15.68-7.87,21.01c-2.01,1.46-1.27,6.31-5.83,4.75c0.45,0.89,0.67,2.06,1.38,2.62c2.13,1.7,5.71,2.44,3.32,6.6
			c-0.18,0.31,2.61,3.25,4.24,3.49c5.61,0.81,10.39-1.47,14.39-5.39c0.71-0.69,1.29-1.93,2.08-2.07c7.72-1.31,6.92-7.11,6.99-12.62
			c0.04-2.79,0.6-5.56,0.92-8.35c2.81,1.28,5.79,2.29,8.4,3.89c12.01,7.36,23.61,15.45,35.97,22.17c8.91,4.85,18.77,4.65,27.34-1.55
			c3.36-2.43,6.03-6.15,8.22-9.77c5.04-8.33,9.69-16.9,14.3-25.48c3.75-6.97,7.64-13.91,10.69-21.18
			c4.44-10.58,5.09-21.29,0.82-32.44c-2.82-7.36-3.94-15.37-5.8-23.09c-1.23-5.09-2.62-10.14-3.56-15.28
			c-0.88-4.86,2.09-7.93,6.05-9.82c1.17-0.56,3.67-0.13,4.57,0.8c4.24,4.39,7.26,9.5,7.24,15.91c-0.01,1.5,0.08,3,0.19,4.49
			c0.3,4.41-0.53,9.79,4.84,11.51c6.2,1.99,12.56,2.74,18.31-2.35c9.88-8.75,14.31-19.47,15.19-32.62
			c0.4-6.01,3.97-12.03,6.96-17.58c3.06-5.68,9.08-5.05,13.51-2.76c3.07,1.59,5.5,5.79,6.63,9.33c1.2,3.76,0.36,8.12,0.71,12.2
			c0.35,4.07,0.68,8.21,1.72,12.14c1.72,6.49,1.44,12.31-2.71,17.96c-5.59,7.62-10.58,15.68-16.26,23.23
			c-2.96,3.92-6.84,7.16-10.41,10.58c-0.07,0.07-1.6-1.25-2.32-2.04c-0.63-0.68-1.09-1.52-1.63-2.29c-0.24,0.86-0.75,1.74-0.66,2.57
			c0.61,6.05-2.5,10.07-7.04,13.39c-0.75,0.55-1.37,1.29-2.05,1.94c0.78-0.01,1.75-0.31,2.29,0.04c0.83,0.54,1.44,1.5,1.98,2.37
			c0.11,0.18-0.4,0.9-0.77,1.2c-14.51,12.07-17.84,30.8-27.32,45.87c-6.54,10.4-12.22,21.34-18.95,31.6
			c-4.97,7.58-10.8,14.64-16.72,21.52c-1.59,1.85-4.81,2.83-7.43,3.21c-13.38,1.93-25.29-2.67-36.14-9.76
			c-11-7.18-23.15-11.21-35.5-14.92c-0.86-0.26-2.54,0.36-3.05,1.11c-1.2,1.74-2.35,3.73-2.77,5.77
			c-1.97,9.72-7.74,15.92-16.57,20.24c-8.62,4.22-17.3,8.74-24.81,14.58c-3.03,2.36-4.1,8.58-4.19,13.08
			c-0.2,10.27,0.57,20.58,1.36,30.84c0.2,2.6,1.27,6.25,3.11,7.26c1.63,0.89,5.14-0.81,7.42-2.08c8.13-4.56,14.69-10.83,19.34-19
			c0.48-0.84,1.27-1.5,1.91-2.25c0.49,0.97,1.17,1.89,1.44,2.91c1.62,6.28,4.14,12.53,4.47,18.89c0.44,8.5-0.52,17.12-1.48,25.62
			c-1.89,16.88,1.48,31.91,14.8,43.37c2.51,2.16,6.5,3.83,9.73,3.7c12.44-0.47,24.61,0.9,36.44,4.4c6.95,2.05,13.64,5.13,20.18,8.3
			c1.9,0.92,3.14,3.61,4.21,5.73c2.02,4.01,3.66,8.22,5.52,12.31c1.08,2.37,3.27,4.72,3.22,7.03c-0.15,6.9,4.1,10.5,9.29,12.85
			c5.36,2.43,3.01,7.11,4.09,10.74c0.09,0.29-3.08,2.08-4.85,2.31c-13.35,1.76-25.97,0.31-37.61-7.52
			c-9.57-6.43-19.45-12.57-29.76-17.7c-9.13-4.54-18.85-8.2-28.69-10.91c-5.75-1.58-12.22-0.59-18.36-0.64
			c-8.36-0.07-14.58-6.2-15.15-14.57c-0.44-6.55,1.72-11.98,4.43-17.92c2.42-5.33,1.87-12.25,1.75-18.46
			c-0.22-11.26-1.37-22.51-1.6-33.77c-0.19-9.34-1.84-10.51-10.54-7.56c-3.93,1.33-8.42,1.35-12.66,1.36
			c-6.19,0.01-7.07,0.52-5.94,6.74c1.04,5.7,2.79,11.26,4.03,16.93c2.09,9.54,3.82,19.17,6.14,28.65c1.05,4.3,3.64,8.24,4.67,12.54
			c0.86,3.61,0.6,7.52,0.56,11.29c-0.01,0.94-0.88,2.32-1.73,2.72c-8.49,4.02-17.04,7.9-25.61,11.75c-0.69,0.31-1.57,0.19-2.37,0.26
			c0.42-0.7,0.81-1.41,1.25-2.1c2.75-4.24,5.98-8.26,7.94-12.83c0.51-1.18-2.71-5.5-4.68-5.86c-3.61-0.67-7.94-0.32-11.29,1.14
			c-7.71,3.37-15.59,2.82-23.55,2.56c-0.49-0.02-0.96-0.29-1.46-0.34c-1.68-0.15-3.37-0.26-5.05-0.38c1.78-1.14,3.52-2.33,5.34-3.4
			c6.41-3.77,13.39-6.85,19.05-11.52c3.01-2.48,5.08-7.63,5.28-11.69c0.76-15.14-3.02-29.52-9.02-43.41
			c-1.51-3.51-2.55-7.63-2.34-11.39c0.88-15.66-2.3-30.6-6.06-45.67c-2.55-10.22-3.44-20.92-4.22-31.47
			c-0.35-4.67-1.54-8.01-5.51-10.26c-12.79-7.27-25.34-15.02-38.5-21.55c-8.25-4.1-17.66-5.79-26.1-9.58
			c-11.84-5.31-24.15-9.74-33.73-19.44c-7.03-7.11-10.27-15.65-11.46-24.77c-0.99-7.6,0.51-15.52,0.82-23.3
			c0.35-8.81,0.71-17.61,0.88-26.42c0.13-6.66,0.3-13.34-0.2-19.97c-0.37-4.87-1.72-9.68-2.78-14.48
			c-1.64-7.42-3.56-14.77-5.1-22.21c-2.34-11.34-4.13-22.81-6.8-34.07c-1.51-6.37-4.31-12.44-6.53-18.64
			c-0.11-0.31-0.34-0.61-0.36-0.93c-0.27-3.68-2.1-7.94,2.18-10.14c0.59-0.3,4.2,4.07,5.55,6.71c2.92,5.72,5.27,11.74,7.9,17.62
			c0.31,0.7,0.86,1.28,1.3,1.92c0.18-0.86,0.69-1.82,0.47-2.56c-1.75-5.88-3.5-11.75-5.52-17.54c-1.56-4.48-3.3-8.74,0.93-12.83
			c1.01-0.97,1.44-2.61,1.97-4c0.56-1.47,0.91-3.02,1.36-4.54c1.43,1.31,3.19,2.41,4.21,3.98c1.51,2.33,2.44,5.03,3.73,7.52
			c0.42,0.81,1.17,1.44,1.76,2.15c0.7-0.66,1.41-1.31,2.11-1.97c0.11-0.11,0.19-0.28,0.24-0.43c1.22-3.73,3.58-7.83,7.47-6.18
			c3.04,1.29,5.87,5.6,6.69,9.06c1.82,7.73,2.5,15.75,3.26,23.68c0.26,2.72-0.56,5.55-1,8.31c-0.24,1.47-0.81,2.88-1.08,4.35
			c-3.05,16.9,4.66,19.94,19.06,18.09c1.69-0.22,3.75-2.56,4.48-4.39c1.71-4.29,2.22-9.1,4.17-13.25c1.47-3.15,4.28-5.74,6.82-8.25
			c0.51-0.51,2.77,0.08,3.74,0.8c7.21,5.37,4.82,12.56,2.83,19.13c-3.93,13.02-11.46,24.13-22.11,32.35
			c-8.96,6.91-12.58,16.83-17.93,25.85c-0.77,1.31-0.8,3.25-0.68,4.86c1.08,13.88,2.45,27.73,3.38,41.62
			c0.44,6.55,3.9,10.88,8.79,14.55c0.51,0.39,1.06,0.93,1.25,1.52c2.38,7.43,8.77,8.48,15.15,9.84c9.69,2.07,19.29,4.57,28.99,6.6
			c7.74,1.63,15.44,1.65,23.08-1.2c3.33-1.24,4.76-3.17,4.98-6.53c0.6-9.26,1.08-18.55,2.04-27.78c0.69-6.57,2.13-13.06,3.13-19.6
			c0.95-6.22,1.24-12.59,2.72-18.68c3.29-13.49,7.01-26.88,10.8-40.25c2.29-8.08,4.92-16.07,7.62-24.03
			c1.05-3.11,2.14-6.5,4.19-8.94c4.42-5.25,4.46-11.24,3.01-17.01c-2.86-11.36-6.3-22.6-10.02-33.72
			c-2.86-8.56-1.59-16.06,4.19-22.74c2.21-2.56,4.86-4.97,7.8-6.56c1.42-0.77,5.12-0.12,5.77,1.02c1.8,3.19,3.43,6.94,3.56,10.52
			c0.43,11.57,0.02,23.17,0.19,34.75c0.1,6.94,0.67,13.88,1.03,20.82c0.04,0.83,0.25,1.7,0.08,2.49
			c-2.36,11.36,1.35,22.36,2.01,33.53c0.79,13.42,1.94,26.83,2.88,40.24c1.16,16.42,2.23,32.85,3.47,49.27
			c0.12,1.63,1.14,3.19,1.74,4.79c0.39-1.53,0.7-3.08,1.17-4.58c1.52-4.89,2.37-10.2,4.92-14.5c1.77-2.98,5.91-4.56,9.03-6.71
			c0.27-0.19,1.23,0.09,1.23,0.13c-0.03,0.95,0.09,2.01-0.29,2.84c-4.24,9.51-5.03,19.55-4.89,29.77
			C320.73,284.83,320.67,290.22,320.67,294.08z M300.15,297.35c-0.84-14.07-3.61-29.1-10.73-43.14c-2.1-4.14-4.93-6.94-9.32-8.35
			c-5.1-1.64-11.8,3.82-9.88,8.75c2.21,5.68,2.18,12.98,9.29,15.98c0.58,0.24,1.11,1.77,0.91,2.49c-1.05,3.73-2.35,7.39-3.56,11.08
			c-0.18,0.56-0.35,1.12-0.53,1.67c0.49-0.37,1.01-0.72,1.47-1.12c7.5-6.65,13.39-6.38,18.21,1.26c1.43,2.27,2.03,5.27,2.32,8.01
			c0.46,4.28,0.31,8.63,0.47,12.95c0.04,1.03,0.25,2.05,0.39,3.08c0.32-1.08,0.86-2.15,0.92-3.24
			C300.24,304.12,300.15,301.46,300.15,297.35z M291.37,289.09c-2.55-1.88-3.93-3.68-5.33-3.69c-1.3-0.02-2.63,1.86-3.95,2.9
			c1.41,1.41,2.62,3.26,4.31,4.02C287.15,292.65,288.89,290.78,291.37,289.09z M333.26,292.26c1.72-2.29,3.36-3.72,3.83-5.46
			c0.22-0.82-1.82-2.25-2.83-3.4c-1.51,1.46-3.27,2.76-4.35,4.49C329.65,288.33,331.59,290.14,333.26,292.26z"/>
		<path d="M211.98,597.49c-7.04-0.67-14.11-1.16-21.11-2.16c-1.58-0.22-3.54-1.94-4.23-3.46c-4.29-9.49-0.07-17.5,5.53-24.67
			c7.72-9.87,18.63-15.81,29.31-21.9c3.61-2.06,5-0.6,4.47,3.02c-0.35,2.41-0.68,5.46-2.23,6.95c-4.67,4.45-3.53,9.5-3.02,14.84
			c0.26,2.69-0.26,5.84-1.51,8.23c-2.89,5.52-2.92,11.32,0.75,16.39c0.46,0.64,0.87,1.31,1.3,1.97c-0.91,0.18-1.82,0.49-2.74,0.52
			c-2.16,0.08-4.33,0.02-6.49,0.02C212,597.32,211.99,597.41,211.98,597.49z"/>
		<path d="M219.32,587.77c0.77-2.88,1.02-4.56,1.68-6.06c0.42-0.94,1.46-1.61,2.21-2.4c0.55,0.84,1.08,1.68,1.65,2.5
			c1.74,2.49,3.48,4.98,5.28,7.43c0.23,0.32,0.84,0.57,1.22,0.52c1.15-0.15,2.27-0.46,3.41-0.71c-0.91,1.31-1.56,3.31-2.8,3.79
			c-2.56,0.98-6,2.32-8.02,1.34C221.67,593.08,220.53,589.59,219.32,587.77z"/>
		<path class="st0" d="M300.15,297.35c0,4.11,0.09,6.77-0.04,9.42c-0.06,1.09-0.6,2.16-0.92,3.24c-0.13-1.03-0.35-2.05-0.39-3.08
			c-0.16-4.32-0.01-8.67-0.47-12.95c-0.29-2.74-0.89-5.74-2.32-8.01c-4.82-7.64-10.71-7.91-18.21-1.26
			c-0.46,0.41-0.98,0.75-1.47,1.12c0.18-0.56,0.35-1.12,0.53-1.67c1.21-3.69,2.51-7.35,3.56-11.08c0.2-0.72-0.33-2.25-0.91-2.49
			c-7.11-3-7.08-10.31-9.29-15.98c-1.92-4.93,4.78-10.38,9.88-8.75c4.38,1.41,7.22,4.21,9.32,8.35
			C296.54,268.25,299.3,283.28,300.15,297.35z"/>
		<path class="st0" d="M291.37,289.09c-2.49,1.69-4.23,3.57-4.97,3.23c-1.7-0.77-2.91-2.62-4.31-4.02c1.32-1.04,2.65-2.92,3.95-2.9
			C287.44,285.41,288.82,287.21,291.37,289.09z"/>
		<path class="st0" d="M333.26,292.26c-1.67-2.13-3.61-3.93-3.34-4.37c1.07-1.73,2.84-3.03,4.35-4.49c1.01,1.15,3.05,2.58,2.83,3.4
			C336.62,288.55,334.98,289.97,333.26,292.26z"/>
	</g>
</g>
</svg>
